<svg width="180" height="48" viewBox="0 0 180 48" fill="none" xmlns="http://www.w3.org/2000/svg">
<path d="M8 9H97.5007V38.3674H8V9Z" fill="#D9D9D9"/>
<path d="M81.651 32.7737L84.3525 16.5008H89.851C91.1223 16.5008 92.1288 16.7153 92.8704 17.1444C93.6173 17.5735 94.1231 18.1641 94.388 18.9163C94.6582 19.6685 94.7138 20.5266 94.5549 21.4907C94.396 22.4442 94.0569 23.2917 93.5378 24.0333C93.024 24.7749 92.3248 25.3576 91.4401 25.7814C90.5608 26.2052 89.4908 26.4171 88.2301 26.4171H83.7805L84.0983 24.6372H88.4843C89.3531 24.6372 90.0735 24.5101 90.6456 24.2558C91.2177 24.0016 91.6626 23.6387 91.9805 23.1673C92.2983 22.6958 92.5102 22.137 92.6161 21.4907C92.7221 20.8339 92.6929 20.2644 92.5287 19.7824C92.3698 19.295 92.044 18.9189 91.5514 18.6541C91.064 18.3839 90.3807 18.2489 89.5014 18.2489H86.037L83.6215 32.7737H81.651ZM90.5184 25.4636L93.3153 32.7737H91.027L88.2936 25.4636H90.5184Z" fill="black"/>
<path d="M68.2783 32.7737L70.9799 16.5008H80.8008L80.5147 18.2489H72.6644L71.7427 23.7473H79.0845L78.7985 25.4954H71.4566L70.5349 31.0256H78.5124L78.2264 32.7737H68.2783Z" fill="black"/>
<path d="M56.5266 16.5008L59.101 30.1992H59.2917L66.3793 16.5008H68.4452L59.7684 32.7737H57.7343L54.4607 16.5008H56.5266Z" fill="black"/>
<path d="M39.7849 32.7737L42.4865 16.5008H52.3074L52.0213 18.2489H44.171L43.2493 23.7473H50.5911L50.3051 25.4954H42.9632L42.0415 31.0256H50.019L49.733 32.7737H39.7849Z" fill="black"/>
<path d="M38.5434 16.5008L35.8419 32.7737H33.9349L27.1969 19.9969H27.038L24.9085 32.7737H22.938L25.6395 16.5008H27.5465L34.3163 29.3093H34.4752L36.6046 16.5008H38.5434Z" fill="black"/>
<path d="M137.321 32.7737L132.665 16.5008H136.423L139.116 27.8076H139.252L142.223 16.5008H145.441L148.405 27.8314H148.548L151.242 16.5008H155L150.344 32.7737H146.991L143.892 22.1343H143.765L140.674 32.7737H137.321Z" fill="#2963FA"/>
<path d="M131.721 24.6372C131.721 26.4118 131.385 27.9215 130.712 29.1663C130.044 30.4111 129.133 31.362 127.979 32.0188C126.829 32.6704 125.537 32.9961 124.101 32.9961C122.655 32.9961 121.357 32.6677 120.208 32.0109C119.058 31.354 118.15 30.4032 117.482 29.1584C116.815 27.9135 116.481 26.4065 116.481 24.6372C116.481 22.8627 116.815 21.353 117.482 20.1082C118.15 18.8633 119.058 17.9151 120.208 17.2636C121.357 16.6067 122.655 16.2783 124.101 16.2783C125.537 16.2783 126.829 16.6067 127.979 17.2636C129.133 17.9151 130.044 18.8633 130.712 20.1082C131.385 21.353 131.721 22.8627 131.721 24.6372ZM128.233 24.6372C128.233 23.4877 128.061 22.5184 127.716 21.7291C127.377 20.9398 126.898 20.3412 126.278 19.9334C125.658 19.5255 124.933 19.3215 124.101 19.3215C123.269 19.3215 122.544 19.5255 121.924 19.9334C121.304 20.3412 120.822 20.9398 120.478 21.7291C120.139 22.5184 119.969 23.4877 119.969 24.6372C119.969 25.7867 120.139 26.7561 120.478 27.5454C120.822 28.3346 121.304 28.9332 121.924 29.3411C122.544 29.749 123.269 29.9529 124.101 29.9529C124.933 29.9529 125.658 29.749 126.278 29.3411C126.898 28.9332 127.377 28.3346 127.716 27.5454C128.061 26.7561 128.233 25.7867 128.233 24.6372Z" fill="#2963FA"/>
<path d="M113.925 16.5008V32.7737H110.953L103.873 22.5316H103.754V32.7737H100.314V16.5008H103.333L110.357 26.7349H110.5V16.5008H113.925Z" fill="#2963FA"/>
<path d="M18.9889 16.5008L18.679 27.895H15.7709L15.4531 16.5008H18.9889ZM17.225 32.9802C16.7005 32.9802 16.2503 32.7948 15.8742 32.424C15.4981 32.0479 15.3127 31.5977 15.318 31.0733C15.3127 30.5541 15.4981 30.1092 15.8742 29.7384C16.2503 29.3676 16.7005 29.1822 17.225 29.1822C17.7282 29.1822 18.1705 29.3676 18.5519 29.7384C18.9333 30.1092 19.1266 30.5541 19.1319 31.0733C19.1266 31.4229 19.0339 31.7434 18.8538 32.0347C18.679 32.3207 18.4486 32.5512 18.1626 32.726C17.8765 32.8955 17.564 32.9802 17.225 32.9802Z" fill="#2963FA"/>
</svg>
